<svg xmlns="http://www.w3.org/2000/svg" viewBox="0 0 880 268" width="880" height="268" role="img" aria-label="John Kevin, backend and fintech engineer in Chennai">
  <rect x="0.5" y="0.5" width="879" height="267" fill="#04060a" stroke="#1c3a2c" stroke-width="1"/>
  <rect x="1" y="1" width="878" height="33" fill="#080c12"/>
  <line x1="1" y1="34" x2="879" y2="34" stroke="#1c3a2c"/>
  <circle cx="18" cy="17.5" r="5.5" fill="#e0533d"/>
  <circle cx="36" cy="17.5" r="5.5" fill="#e5a13a"/>
  <circle cx="54" cy="17.5" r="5.5" fill="#34e39b"/>
  <text x="78" y="22" font-family="ui-monospace, SFMono-Regular, Menlo, Consolas, monospace" font-size="12" font-weight="400" fill="#8b949e">github.com/gottostartsomewhere</text>
  <circle cx="792" cy="17.5" r="3.5" fill="#34e39b"/>
  <text x="802" y="21.5" font-family="ui-monospace, SFMono-Regular, Menlo, Consolas, monospace" font-size="10" font-weight="700" fill="#34e39b" letter-spacing="2">LIVE</text>
  <rect x="1" y="35" width="878" height="27" fill="#060a0e"/>
  <line x1="1" y1="62" x2="879" y2="62" stroke="#1c3a2c"/>
  <text x="22" y="52.5" font-family="ui-monospace, SFMono-Regular, Menlo, Consolas, monospace" font-size="11" font-weight="600" fill="#8b949e">OPENBB</text>
  <circle cx="75.6" cy="48.5" r="3.5" fill="#e5a13a"/>
  <text x="85.6" y="52.5" font-family="ui-monospace, SFMono-Regular, Menlo, Consolas, monospace" font-size="11" font-weight="600" fill="#e5a13a">OPEN</text>
  <text x="138.0" y="52.5" font-family="ui-monospace, SFMono-Regular, Menlo, Consolas, monospace" font-size="11" font-weight="600" fill="#8b949e">EDGARTOOLS</text>
  <polygon points="218.0,44.0 213.5,52.1 222.5,52.1" fill="#34e39b"/>
  <text x="228.0" y="52.5" font-family="ui-monospace, SFMono-Regular, Menlo, Consolas, monospace" font-size="11" font-weight="600" fill="#34e39b">FILLED</text>
  <text x="293.6" y="52.5" font-family="ui-monospace, SFMono-Regular, Menlo, Consolas, monospace" font-size="11" font-weight="600" fill="#8b949e">YFINANCE</text>
  <polygon points="360.40000000000003,44.0 355.90000000000003,52.1 364.90000000000003,52.1" fill="#34e39b"/>
  <text x="370.40000000000003" y="52.5" font-family="ui-monospace, SFMono-Regular, Menlo, Consolas, monospace" font-size="11" font-weight="600" fill="#34e39b">FILLED</text>
  <text x="436.0" y="52.5" font-family="ui-monospace, SFMono-Regular, Menlo, Consolas, monospace" font-size="11" font-weight="600" fill="#8b949e">SUPABASE-PY</text>
  <polygon points="522.6,44.0 518.1,52.1 527.1,52.1" fill="#34e39b"/>
  <text x="532.6" y="52.5" font-family="ui-monospace, SFMono-Regular, Menlo, Consolas, monospace" font-size="11" font-weight="600" fill="#34e39b">FILLED</text>
  <text x="598.2" y="52.5" font-family="ui-monospace, SFMono-Regular, Menlo, Consolas, monospace" font-size="11" font-weight="600" fill="#8b949e">LEDGER-API</text>
  <circle cx="678.2" cy="48.5" r="3.5" fill="#38d6ff"/>
  <text x="688.2" y="52.5" font-family="ui-monospace, SFMono-Regular, Menlo, Consolas, monospace" font-size="11" font-weight="600" fill="#38d6ff">BUILD</text>
  <rect x="28" y="92" width="3" height="34" fill="#34e39b"/>
  <rect x="54" y="92" width="12" height="4" fill="#eef4f0"/>
  <rect x="58" y="96" width="4" height="4" fill="#eef4f0"/>
  <rect x="58" y="100" width="4" height="4" fill="#eef4f0"/>
  <rect x="58" y="104" width="4" height="4" fill="#eef4f0"/>
  <rect x="58" y="108" width="4" height="4" fill="#eef4f0"/>
  <rect x="46" y="112" width="4" height="4" fill="#eef4f0"/>
  <rect x="58" y="112" width="4" height="4" fill="#eef4f0"/>
  <rect x="50" y="116" width="8" height="4" fill="#eef4f0"/>
  <rect x="74" y="92" width="12" height="4" fill="#eef4f0"/>
  <rect x="70" y="96" width="4" height="4" fill="#eef4f0"/>
  <rect x="86" y="96" width="4" height="4" fill="#eef4f0"/>
  <rect x="70" y="100" width="4" height="4" fill="#eef4f0"/>
  <rect x="86" y="100" width="4" height="4" fill="#eef4f0"/>
  <rect x="70" y="104" width="4" height="4" fill="#eef4f0"/>
  <rect x="86" y="104" width="4" height="4" fill="#eef4f0"/>
  <rect x="70" y="108" width="4" height="4" fill="#eef4f0"/>
  <rect x="86" y="108" width="4" height="4" fill="#eef4f0"/>
  <rect x="70" y="112" width="4" height="4" fill="#eef4f0"/>
  <rect x="86" y="112" width="4" height="4" fill="#eef4f0"/>
  <rect x="74" y="116" width="12" height="4" fill="#eef4f0"/>
  <rect x="94" y="92" width="4" height="4" fill="#eef4f0"/>
  <rect x="110" y="92" width="4" height="4" fill="#eef4f0"/>
  <rect x="94" y="96" width="4" height="4" fill="#eef4f0"/>
  <rect x="110" y="96" width="4" height="4" fill="#eef4f0"/>
  <rect x="94" y="100" width="4" height="4" fill="#eef4f0"/>
  <rect x="110" y="100" width="4" height="4" fill="#eef4f0"/>
  <rect x="94" y="104" width="20" height="4" fill="#eef4f0"/>
  <rect x="94" y="108" width="4" height="4" fill="#eef4f0"/>
  <rect x="110" y="108" width="4" height="4" fill="#eef4f0"/>
  <rect x="94" y="112" width="4" height="4" fill="#eef4f0"/>
  <rect x="110" y="112" width="4" height="4" fill="#eef4f0"/>
  <rect x="94" y="116" width="4" height="4" fill="#eef4f0"/>
  <rect x="110" y="116" width="4" height="4" fill="#eef4f0"/>
  <rect x="118" y="92" width="4" height="4" fill="#eef4f0"/>
  <rect x="134" y="92" width="4" height="4" fill="#eef4f0"/>
  <rect x="118" y="96" width="8" height="4" fill="#eef4f0"/>
  <rect x="134" y="96" width="4" height="4" fill="#eef4f0"/>
  <rect x="118" y="100" width="4" height="4" fill="#eef4f0"/>
  <rect x="126" y="100" width="4" height="4" fill="#eef4f0"/>
  <rect x="134" y="100" width="4" height="4" fill="#eef4f0"/>
  <rect x="118" y="104" width="4" height="4" fill="#eef4f0"/>
  <rect x="130" y="104" width="8" height="4" fill="#eef4f0"/>
  <rect x="118" y="108" width="4" height="4" fill="#eef4f0"/>
  <rect x="134" y="108" width="4" height="4" fill="#eef4f0"/>
  <rect x="118" y="112" width="4" height="4" fill="#eef4f0"/>
  <rect x="134" y="112" width="4" height="4" fill="#eef4f0"/>
  <rect x="118" y="116" width="4" height="4" fill="#eef4f0"/>
  <rect x="134" y="116" width="4" height="4" fill="#eef4f0"/>
  <rect x="166" y="92" width="4" height="4" fill="#eef4f0"/>
  <rect x="182" y="92" width="4" height="4" fill="#eef4f0"/>
  <rect x="166" y="96" width="4" height="4" fill="#eef4f0"/>
  <rect x="178" y="96" width="4" height="4" fill="#eef4f0"/>
  <rect x="166" y="100" width="4" height="4" fill="#eef4f0"/>
  <rect x="174" y="100" width="4" height="4" fill="#eef4f0"/>
  <rect x="166" y="104" width="8" height="4" fill="#eef4f0"/>
  <rect x="166" y="108" width="4" height="4" fill="#eef4f0"/>
  <rect x="174" y="108" width="4" height="4" fill="#eef4f0"/>
  <rect x="166" y="112" width="4" height="4" fill="#eef4f0"/>
  <rect x="178" y="112" width="4" height="4" fill="#eef4f0"/>
  <rect x="166" y="116" width="4" height="4" fill="#eef4f0"/>
  <rect x="182" y="116" width="4" height="4" fill="#eef4f0"/>
  <rect x="190" y="92" width="20" height="4" fill="#eef4f0"/>
  <rect x="190" y="96" width="4" height="4" fill="#eef4f0"/>
  <rect x="190" y="100" width="4" height="4" fill="#eef4f0"/>
  <rect x="190" y="104" width="16" height="4" fill="#eef4f0"/>
  <rect x="190" y="108" width="4" height="4" fill="#eef4f0"/>
  <rect x="190" y="112" width="4" height="4" fill="#eef4f0"/>
  <rect x="190" y="116" width="20" height="4" fill="#eef4f0"/>
  <rect x="214" y="92" width="4" height="4" fill="#eef4f0"/>
  <rect x="230" y="92" width="4" height="4" fill="#eef4f0"/>
  <rect x="214" y="96" width="4" height="4" fill="#eef4f0"/>
  <rect x="230" y="96" width="4" height="4" fill="#eef4f0"/>
  <rect x="214" y="100" width="4" height="4" fill="#eef4f0"/>
  <rect x="230" y="100" width="4" height="4" fill="#eef4f0"/>
  <rect x="214" y="104" width="4" height="4" fill="#eef4f0"/>
  <rect x="230" y="104" width="4" height="4" fill="#eef4f0"/>
  <rect x="214" y="108" width="4" height="4" fill="#eef4f0"/>
  <rect x="230" y="108" width="4" height="4" fill="#eef4f0"/>
  <rect x="218" y="112" width="4" height="4" fill="#eef4f0"/>
  <rect x="226" y="112" width="4" height="4" fill="#eef4f0"/>
  <rect x="222" y="116" width="4" height="4" fill="#eef4f0"/>
  <rect x="238" y="92" width="20" height="4" fill="#eef4f0"/>
  <rect x="246" y="96" width="4" height="4" fill="#eef4f0"/>
  <rect x="246" y="100" width="4" height="4" fill="#eef4f0"/>
  <rect x="246" y="104" width="4" height="4" fill="#eef4f0"/>
  <rect x="246" y="108" width="4" height="4" fill="#eef4f0"/>
  <rect x="246" y="112" width="4" height="4" fill="#eef4f0"/>
  <rect x="238" y="116" width="20" height="4" fill="#eef4f0"/>
  <rect x="262" y="92" width="4" height="4" fill="#eef4f0"/>
  <rect x="278" y="92" width="4" height="4" fill="#eef4f0"/>
  <rect x="262" y="96" width="8" height="4" fill="#eef4f0"/>
  <rect x="278" y="96" width="4" height="4" fill="#eef4f0"/>
  <rect x="262" y="100" width="4" height="4" fill="#eef4f0"/>
  <rect x="270" y="100" width="4" height="4" fill="#eef4f0"/>
  <rect x="278" y="100" width="4" height="4" fill="#eef4f0"/>
  <rect x="262" y="104" width="4" height="4" fill="#eef4f0"/>
  <rect x="274" y="104" width="8" height="4" fill="#eef4f0"/>
  <rect x="262" y="108" width="4" height="4" fill="#eef4f0"/>
  <rect x="278" y="108" width="4" height="4" fill="#eef4f0"/>
  <rect x="262" y="112" width="4" height="4" fill="#eef4f0"/>
  <rect x="278" y="112" width="4" height="4" fill="#eef4f0"/>
  <rect x="262" y="116" width="4" height="4" fill="#eef4f0"/>
  <rect x="278" y="116" width="4" height="4" fill="#eef4f0"/>
  <text x="46" y="152" font-family="ui-monospace, SFMono-Regular, Menlo, Consolas, monospace" font-size="13" font-weight="400" fill="#8b949e">Backend &amp; fintech engineer  ·  Chennai</text>
  <text x="46" y="174" font-family="ui-monospace, SFMono-Regular, Menlo, Consolas, monospace" font-size="12" font-weight="400" fill="#5b6570">payments  ·  ledgers  ·  market-data tooling</text>
  <rect x="46" y="198" width="84.0" height="22" fill="#080c12" stroke="#16212a" stroke-width="1"/><text x="88.0" y="212.6" font-family="ui-monospace, SFMono-Regular, Menlo, Consolas, monospace" font-size="10" font-weight="400" fill="#5b6570" text-anchor="middle">VIT CHENNAI</text>
  <rect x="138.0" y="198" width="72.0" height="22" fill="#080c12" stroke="#16212a" stroke-width="1"/><text x="174.0" y="212.6" font-family="ui-monospace, SFMono-Regular, Menlo, Consolas, monospace" font-size="10" font-weight="400" fill="#5b6570" text-anchor="middle">WISEFOLIO</text>
  <rect x="218.0" y="198" width="84.0" height="22" fill="#080c12" stroke="#16212a" stroke-width="1"/><text x="260.0" y="212.6" font-family="ui-monospace, SFMono-Regular, Menlo, Consolas, monospace" font-size="10" font-weight="400" fill="#5b6570" text-anchor="middle">OPEN SOURCE</text>
  <rect x="512.5" y="86.5" width="339" height="151" fill="#060a0e" stroke="#1c3a2c" stroke-width="1"/>
  <line x1="513" y1="124.0" x2="851" y2="124.0" stroke="#16212a"/>
  <line x1="513" y1="162.0" x2="851" y2="162.0" stroke="#16212a"/>
  <line x1="513" y1="200.0" x2="851" y2="200.0" stroke="#16212a"/>
  <text x="524" y="106" font-family="ui-monospace, SFMono-Regular, Menlo, Consolas, monospace" font-size="10" font-weight="400" fill="#5b6570" letter-spacing="1">CONTRIB · 12M</text>
  <rect x="529.4" y="201.4" width="1.2" height="20.6" fill="#34e39b" opacity=".45"/>
  <rect x="526.0" y="208.4" width="8.0" height="3.5" fill="#34e39b"/>
  <rect x="542.4" y="198.0" width="1.2" height="17.6" fill="#34e39b" opacity=".45"/>
  <rect x="539.0" y="204.5" width="8.0" height="3.9" fill="#34e39b"/>
  <rect x="555.4" y="198.0" width="1.2" height="17.5" fill="#e0533d" opacity=".45"/>
  <rect x="552.0" y="204.5" width="8.0" height="3.5" fill="#e0533d"/>
  <rect x="568.4" y="192.7" width="1.2" height="20.0" fill="#34e39b" opacity=".45"/>
  <rect x="565.0" y="195.7" width="8.0" height="12.3" fill="#34e39b"/>
  <rect x="581.4" y="186.5" width="1.2" height="23.1" fill="#e0533d" opacity=".45"/>
  <rect x="578.0" y="195.7" width="8.0" height="5.8" fill="#e0533d"/>
  <rect x="594.4" y="190.9" width="1.2" height="28.1" fill="#e0533d" opacity=".45"/>
  <rect x="591.0" y="201.5" width="8.0" height="7.1" fill="#e0533d"/>
  <rect x="607.4" y="192.4" width="1.2" height="19.7" fill="#34e39b" opacity=".45"/>
  <rect x="604.0" y="199.9" width="8.0" height="8.7" fill="#34e39b"/>
  <rect x="620.4" y="193.2" width="1.2" height="17.1" fill="#e0533d" opacity=".45"/>
  <rect x="617.0" y="199.9" width="8.0" height="7.8" fill="#e0533d"/>
  <rect x="633.4" y="203.4" width="1.2" height="9.9" fill="#e0533d" opacity=".45"/>
  <rect x="630.0" y="207.7" width="8.0" height="3.2" fill="#e0533d"/>
  <rect x="646.4" y="201.2" width="1.2" height="19.1" fill="#34e39b" opacity=".45"/>
  <rect x="643.0" y="207.1" width="8.0" height="3.8" fill="#34e39b"/>
  <rect x="659.4" y="194.2" width="1.2" height="19.4" fill="#34e39b" opacity=".45"/>
  <rect x="656.0" y="201.9" width="8.0" height="5.2" fill="#34e39b"/>
  <rect x="672.4" y="186.9" width="1.2" height="19.5" fill="#34e39b" opacity=".45"/>
  <rect x="669.0" y="193.0" width="8.0" height="8.9" fill="#34e39b"/>
  <rect x="685.4" y="164.7" width="1.2" height="37.7" fill="#34e39b" opacity=".45"/>
  <rect x="682.0" y="175.4" width="8.0" height="17.6" fill="#34e39b"/>
  <rect x="698.4" y="160.4" width="1.2" height="19.1" fill="#34e39b" opacity=".45"/>
  <rect x="695.0" y="165.3" width="8.0" height="10.1" fill="#34e39b"/>
  <rect x="711.4" y="162.5" width="1.2" height="12.3" fill="#e0533d" opacity=".45"/>
  <rect x="708.0" y="165.3" width="8.0" height="1.5" fill="#e0533d"/>
  <rect x="724.4" y="154.4" width="1.2" height="17.1" fill="#34e39b" opacity=".45"/>
  <rect x="721.0" y="163.9" width="8.0" height="2.1" fill="#34e39b"/>
  <rect x="737.4" y="137.9" width="1.2" height="28.1" fill="#34e39b" opacity=".45"/>
  <rect x="734.0" y="147.3" width="8.0" height="16.6" fill="#34e39b"/>
  <rect x="750.4" y="137.3" width="1.2" height="19.0" fill="#e0533d" opacity=".45"/>
  <rect x="747.0" y="147.3" width="8.0" height="2.8" fill="#e0533d"/>
  <rect x="763.4" y="127.4" width="1.2" height="25.4" fill="#34e39b" opacity=".45"/>
  <rect x="760.0" y="132.9" width="8.0" height="17.2" fill="#34e39b"/>
  <rect x="776.4" y="116.0" width="1.2" height="21.4" fill="#34e39b" opacity=".45"/>
  <rect x="773.0" y="124.9" width="8.0" height="8.0" fill="#34e39b"/>
  <rect x="789.4" y="119.8" width="1.2" height="21.4" fill="#e0533d" opacity=".45"/>
  <rect x="786.0" y="124.9" width="8.0" height="5.9" fill="#e0533d"/>
  <rect x="802.4" y="116.2" width="1.2" height="18.8" fill="#34e39b" opacity=".45"/>
  <rect x="799.0" y="119.4" width="8.0" height="11.4" fill="#34e39b"/>
  <rect x="815.4" y="116.7" width="1.2" height="17.3" fill="#e0533d" opacity=".45"/>
  <rect x="812.0" y="119.4" width="8.0" height="5.5" fill="#e0533d"/>
  <rect x="828.4" y="118.0" width="1.2" height="16.5" fill="#e0533d" opacity=".45"/>
  <rect x="825.0" y="124.9" width="8.0" height="3.6" fill="#e0533d"/>
</svg>
