<svg xmlns="http://www.w3.org/2000/svg" viewBox="0 0 880 212" width="880" height="212" role="img" aria-label="Merged and open pull requests">
  <rect x="0.5" y="0.5" width="879" height="211" fill="#080c12" stroke="#1c3a2c" stroke-width="1"/>
  <rect x="1" y="1" width="878" height="32" fill="#060a0e"/>
  <line x1="1" y1="33" x2="879" y2="33" stroke="#1c3a2c"/>
  <text x="24" y="21" font-family="ui-monospace, SFMono-Regular, Menlo, Consolas, monospace" font-size="10" font-weight="700" fill="#5b6570" letter-spacing="2">REPOSITORY</text>
  <text x="224" y="21" font-family="ui-monospace, SFMono-Regular, Menlo, Consolas, monospace" font-size="10" font-weight="700" fill="#5b6570" letter-spacing="2">CONTRIBUTION</text>
  <text x="700" y="21" font-family="ui-monospace, SFMono-Regular, Menlo, Consolas, monospace" font-size="10" font-weight="700" fill="#5b6570" letter-spacing="2">STARS</text>
  <text x="856" y="21" font-family="ui-monospace, SFMono-Regular, Menlo, Consolas, monospace" font-size="10" font-weight="700" fill="#5b6570" text-anchor="end" letter-spacing="2">STATUS</text>
  <rect x="24" y="47" width="2" height="16" fill="#e5a13a"/>
  <text x="38" y="60" font-family="ui-monospace, SFMono-Regular, Menlo, Consolas, monospace" font-size="13" font-weight="600" fill="#eef4f0">OpenBB</text>
  <text x="224" y="60" font-family="ui-monospace, SFMono-Regular, Menlo, Consolas, monospace" font-size="13" font-weight="400" fill="#c9d3dd">NSE market-data extension (obb.nse.*)</text>
  <polygon points="704.0,51.0 705.2,54.3 708.8,54.5 706.0,56.6 706.9,60.0 704.0,58.1 701.1,60.0 702.0,56.6 699.2,54.5 702.8,54.3" fill="#e5a13a"/>
  <text x="716" y="60" font-family="ui-monospace, SFMono-Regular, Menlo, Consolas, monospace" font-size="12" font-weight="400" fill="#8b949e">70k</text>
  <rect x="812.0" y="45" width="44.0" height="20" fill="none" stroke="#e5a13a" stroke-width="1"/>
  <text x="834.0" y="59.5" font-family="ui-monospace, SFMono-Regular, Menlo, Consolas, monospace" font-size="10" font-weight="700" fill="#e5a13a" text-anchor="middle">OPEN</text>
  <line x1="24" y1="75" x2="856" y2="75" stroke="#16212a" stroke-dasharray="3 4"/>
  <rect x="24" y="89" width="2" height="16" fill="#34e39b"/>
  <text x="38" y="102" font-family="ui-monospace, SFMono-Regular, Menlo, Consolas, monospace" font-size="13" font-weight="600" fill="#eef4f0">edgartools</text>
  <text x="224" y="102" font-family="ui-monospace, SFMono-Regular, Menlo, Consolas, monospace" font-size="13" font-weight="400" fill="#c9d3dd">S-3 filing section extraction</text>
  <rect x="800.0" y="87" width="56.0" height="20" fill="none" stroke="#34e39b" stroke-width="1"/>
  <text x="828.0" y="101.5" font-family="ui-monospace, SFMono-Regular, Menlo, Consolas, monospace" font-size="10" font-weight="700" fill="#34e39b" text-anchor="middle">FILLED</text>
  <line x1="24" y1="117" x2="856" y2="117" stroke="#16212a" stroke-dasharray="3 4"/>
  <rect x="24" y="131" width="2" height="16" fill="#34e39b"/>
  <text x="38" y="144" font-family="ui-monospace, SFMono-Regular, Menlo, Consolas, monospace" font-size="13" font-weight="600" fill="#eef4f0">yfinance</text>
  <text x="224" y="144" font-family="ui-monospace, SFMono-Regular, Menlo, Consolas, monospace" font-size="13" font-weight="400" fill="#c9d3dd">interval handling fixes</text>
  <polygon points="704.0,135.0 705.2,138.3 708.8,138.5 706.0,140.6 706.9,144.0 704.0,142.1 701.1,144.0 702.0,140.6 699.2,138.5 702.8,138.3" fill="#e5a13a"/>
  <text x="716" y="144" font-family="ui-monospace, SFMono-Regular, Menlo, Consolas, monospace" font-size="12" font-weight="400" fill="#8b949e">24k</text>
  <rect x="800.0" y="129" width="56.0" height="20" fill="none" stroke="#34e39b" stroke-width="1"/>
  <text x="828.0" y="143.5" font-family="ui-monospace, SFMono-Regular, Menlo, Consolas, monospace" font-size="10" font-weight="700" fill="#34e39b" text-anchor="middle">FILLED</text>
  <line x1="24" y1="159" x2="856" y2="159" stroke="#16212a" stroke-dasharray="3 4"/>
  <rect x="24" y="173" width="2" height="16" fill="#34e39b"/>
  <text x="38" y="186" font-family="ui-monospace, SFMono-Regular, Menlo, Consolas, monospace" font-size="13" font-weight="600" fill="#eef4f0">supabase-py</text>
  <text x="224" y="186" font-family="ui-monospace, SFMono-Regular, Menlo, Consolas, monospace" font-size="13" font-weight="400" fill="#c9d3dd">PostgREST array filter type coercion</text>
  <rect x="800.0" y="171" width="56.0" height="20" fill="none" stroke="#34e39b" stroke-width="1"/>
  <text x="828.0" y="185.5" font-family="ui-monospace, SFMono-Regular, Menlo, Consolas, monospace" font-size="10" font-weight="700" fill="#34e39b" text-anchor="middle">FILLED</text>
</svg>
