<svg viewBox="0 0 400 400" xmlns="http://www.w3.org/2000/svg" role="img" aria-label="Spinning roulette wheel">
  <circle cx="200" cy="200" r="192" fill="none" stroke="#c8a24a" stroke-width="1.5" opacity="0.45"/>
  <circle cx="200" cy="200" r="182" fill="none" stroke="#c8a24a" stroke-width="7"/>
  <g>
    <animateTransform attributeName="transform" attributeType="XML" type="rotate" from="0 200 200" to="360 200 200" dur="9s" repeatCount="indefinite"/>
    <path d="M200.00,78.00 L200.00,28.00 A172,172 0 0 1 229.07,30.47 L220.62,79.75 A122,122 0 0 0 200.00,78.00 Z" fill="#0e7a3c" stroke="#c8a24a" stroke-width="0.7"/><path d="M220.62,79.75 L229.07,30.47 A172,172 0 0 1 257.30,37.83 L240.64,84.97 A122,122 0 0 0 220.62,79.75 Z" fill="#a80c17" stroke="#c8a24a" stroke-width="0.7"/><path d="M240.64,84.97 L257.30,37.83 A172,172 0 0 1 283.88,49.84 L259.50,93.49 A122,122 0 0 0 240.64,84.97 Z" fill="#15120f" stroke="#c8a24a" stroke-width="0.7"/><path d="M259.50,93.49 L283.88,49.84 A172,172 0 0 1 308.05,66.18 L276.64,105.08 A122,122 0 0 0 259.50,93.49 Z" fill="#a80c17" stroke="#c8a24a" stroke-width="0.7"/><path d="M276.64,105.08 L308.05,66.18 A172,172 0 0 1 329.12,86.36 L291.58,119.40 A122,122 0 0 0 276.64,105.08 Z" fill="#15120f" stroke="#c8a24a" stroke-width="0.7"/><path d="M291.58,119.40 L329.12,86.36 A172,172 0 0 1 346.46,109.82 L303.89,136.03 A122,122 0 0 0 291.58,119.40 Z" fill="#a80c17" stroke="#c8a24a" stroke-width="0.7"/><path d="M303.89,136.03 L346.46,109.82 A172,172 0 0 1 359.60,135.87 L313.20,154.51 A122,122 0 0 0 303.89,136.03 Z" fill="#15120f" stroke="#c8a24a" stroke-width="0.7"/><path d="M313.20,154.51 L359.60,135.87 A172,172 0 0 1 368.14,163.76 L319.26,174.30 A122,122 0 0 0 313.20,154.51 Z" fill="#a80c17" stroke="#c8a24a" stroke-width="0.7"/><path d="M319.26,174.30 L368.14,163.76 A172,172 0 0 1 371.85,192.70 L321.89,194.82 A122,122 0 0 0 319.26,174.30 Z" fill="#15120f" stroke="#c8a24a" stroke-width="0.7"/><path d="M321.89,194.82 L371.85,192.70 A172,172 0 0 1 370.61,221.85 L321.01,215.50 A122,122 0 0 0 321.89,194.82 Z" fill="#a80c17" stroke="#c8a24a" stroke-width="0.7"/><path d="M321.01,215.50 L370.61,221.85 A172,172 0 0 1 364.46,250.37 L316.65,235.72 A122,122 0 0 0 321.01,215.50 Z" fill="#15120f" stroke="#c8a24a" stroke-width="0.7"/><path d="M316.65,235.72 L364.46,250.37 A172,172 0 0 1 353.58,277.44 L308.94,254.92 A122,122 0 0 0 316.65,235.72 Z" fill="#a80c17" stroke="#c8a24a" stroke-width="0.7"/><path d="M308.94,254.92 L353.58,277.44 A172,172 0 0 1 338.29,302.28 L298.09,272.55 A122,122 0 0 0 308.94,254.92 Z" fill="#15120f" stroke="#c8a24a" stroke-width="0.7"/><path d="M298.09,272.55 L338.29,302.28 A172,172 0 0 1 319.01,324.18 L284.42,288.08 A122,122 0 0 0 298.09,272.55 Z" fill="#a80c17" stroke="#c8a24a" stroke-width="0.7"/><path d="M284.42,288.08 L319.01,324.18 A172,172 0 0 1 296.32,342.50 L268.32,301.08 A122,122 0 0 0 284.42,288.08 Z" fill="#15120f" stroke="#c8a24a" stroke-width="0.7"/><path d="M268.32,301.08 L296.32,342.50 A172,172 0 0 1 270.85,356.73 L250.25,311.17 A122,122 0 0 0 268.32,301.08 Z" fill="#a80c17" stroke="#c8a24a" stroke-width="0.7"/><path d="M250.25,311.17 L270.85,356.73 A172,172 0 0 1 243.34,366.45 L230.74,318.06 A122,122 0 0 0 250.25,311.17 Z" fill="#15120f" stroke="#c8a24a" stroke-width="0.7"/><path d="M230.74,318.06 L243.34,366.45 A172,172 0 0 1 214.59,371.38 L210.35,321.56 A122,122 0 0 0 230.74,318.06 Z" fill="#a80c17" stroke="#c8a24a" stroke-width="0.7"/><path d="M210.35,321.56 L214.59,371.38 A172,172 0 0 1 185.41,371.38 L189.65,321.56 A122,122 0 0 0 210.35,321.56 Z" fill="#15120f" stroke="#c8a24a" stroke-width="0.7"/><path d="M189.65,321.56 L185.41,371.38 A172,172 0 0 1 156.66,366.45 L169.26,318.06 A122,122 0 0 0 189.65,321.56 Z" fill="#a80c17" stroke="#c8a24a" stroke-width="0.7"/><path d="M169.26,318.06 L156.66,366.45 A172,172 0 0 1 129.15,356.73 L149.75,311.17 A122,122 0 0 0 169.26,318.06 Z" fill="#15120f" stroke="#c8a24a" stroke-width="0.7"/><path d="M149.75,311.17 L129.15,356.73 A172,172 0 0 1 103.68,342.50 L131.68,301.08 A122,122 0 0 0 149.75,311.17 Z" fill="#a80c17" stroke="#c8a24a" stroke-width="0.7"/><path d="M131.68,301.08 L103.68,342.50 A172,172 0 0 1 80.99,324.18 L115.58,288.08 A122,122 0 0 0 131.68,301.08 Z" fill="#15120f" stroke="#c8a24a" stroke-width="0.7"/><path d="M115.58,288.08 L80.99,324.18 A172,172 0 0 1 61.71,302.28 L101.91,272.55 A122,122 0 0 0 115.58,288.08 Z" fill="#a80c17" stroke="#c8a24a" stroke-width="0.7"/><path d="M101.91,272.55 L61.71,302.28 A172,172 0 0 1 46.42,277.44 L91.06,254.92 A122,122 0 0 0 101.91,272.55 Z" fill="#15120f" stroke="#c8a24a" stroke-width="0.7"/><path d="M91.06,254.92 L46.42,277.44 A172,172 0 0 1 35.54,250.37 L83.35,235.72 A122,122 0 0 0 91.06,254.92 Z" fill="#a80c17" stroke="#c8a24a" stroke-width="0.7"/><path d="M83.35,235.72 L35.54,250.37 A172,172 0 0 1 29.39,221.85 L78.99,215.50 A122,122 0 0 0 83.35,235.72 Z" fill="#15120f" stroke="#c8a24a" stroke-width="0.7"/><path d="M78.99,215.50 L29.39,221.85 A172,172 0 0 1 28.15,192.70 L78.11,194.82 A122,122 0 0 0 78.99,215.50 Z" fill="#a80c17" stroke="#c8a24a" stroke-width="0.7"/><path d="M78.11,194.82 L28.15,192.70 A172,172 0 0 1 31.86,163.76 L80.74,174.30 A122,122 0 0 0 78.11,194.82 Z" fill="#15120f" stroke="#c8a24a" stroke-width="0.7"/><path d="M80.74,174.30 L31.86,163.76 A172,172 0 0 1 40.40,135.87 L86.80,154.51 A122,122 0 0 0 80.74,174.30 Z" fill="#a80c17" stroke="#c8a24a" stroke-width="0.7"/><path d="M86.80,154.51 L40.40,135.87 A172,172 0 0 1 53.54,109.82 L96.11,136.03 A122,122 0 0 0 86.80,154.51 Z" fill="#15120f" stroke="#c8a24a" stroke-width="0.7"/><path d="M96.11,136.03 L53.54,109.82 A172,172 0 0 1 70.88,86.36 L108.42,119.40 A122,122 0 0 0 96.11,136.03 Z" fill="#a80c17" stroke="#c8a24a" stroke-width="0.7"/><path d="M108.42,119.40 L70.88,86.36 A172,172 0 0 1 91.95,66.18 L123.36,105.08 A122,122 0 0 0 108.42,119.40 Z" fill="#15120f" stroke="#c8a24a" stroke-width="0.7"/><path d="M123.36,105.08 L91.95,66.18 A172,172 0 0 1 116.12,49.84 L140.50,93.49 A122,122 0 0 0 123.36,105.08 Z" fill="#a80c17" stroke="#c8a24a" stroke-width="0.7"/><path d="M140.50,93.49 L116.12,49.84 A172,172 0 0 1 142.70,37.83 L159.36,84.97 A122,122 0 0 0 140.50,93.49 Z" fill="#15120f" stroke="#c8a24a" stroke-width="0.7"/><path d="M159.36,84.97 L142.70,37.83 A172,172 0 0 1 170.93,30.47 L179.38,79.75 A122,122 0 0 0 159.36,84.97 Z" fill="#a80c17" stroke="#c8a24a" stroke-width="0.7"/><path d="M179.38,79.75 L170.93,30.47 A172,172 0 0 1 200.00,28.00 L200.00,78.00 A122,122 0 0 0 179.38,79.75 Z" fill="#15120f" stroke="#c8a24a" stroke-width="0.7"/>
    <circle cx="200" cy="200" r="120" fill="#0d1117" stroke="#c8a24a" stroke-width="2"/>
    <line x1="200.00" y1="170.00" x2="200.00" y2="86.00" stroke="#c8a24a" stroke-width="1.4" opacity="0.7"/><line x1="221.21" y1="178.79" x2="280.61" y2="119.39" stroke="#c8a24a" stroke-width="1.4" opacity="0.7"/><line x1="230.00" y1="200.00" x2="314.00" y2="200.00" stroke="#c8a24a" stroke-width="1.4" opacity="0.7"/><line x1="221.21" y1="221.21" x2="280.61" y2="280.61" stroke="#c8a24a" stroke-width="1.4" opacity="0.7"/><line x1="200.00" y1="230.00" x2="200.00" y2="314.00" stroke="#c8a24a" stroke-width="1.4" opacity="0.7"/><line x1="178.79" y1="221.21" x2="119.39" y2="280.61" stroke="#c8a24a" stroke-width="1.4" opacity="0.7"/><line x1="170.00" y1="200.00" x2="86.00" y2="200.00" stroke="#c8a24a" stroke-width="1.4" opacity="0.7"/><line x1="178.79" y1="178.79" x2="119.39" y2="119.39" stroke="#c8a24a" stroke-width="1.4" opacity="0.7"/>
    <circle cx="200" cy="200" r="30" fill="#c8a24a"/>
    <circle cx="200" cy="200" r="21" fill="#0d1117"/>
    <circle cx="200" cy="200" r="4" fill="#c8a24a"/>
  </g>
  <g>
    <animateTransform attributeName="transform" attributeType="XML" type="rotate" from="360 200 200" to="0 200 200" dur="6s" repeatCount="indefinite"/>
    <circle cx="200.00" cy="53.00" r="7" fill="#f2efe6" stroke="#0d1117" stroke-width="0.5"/>
  </g>
</svg>
