<svg xmlns="http://www.w3.org/2000/svg" viewBox="0 0 392 124" width="392" height="124" role="img" aria-label="Candlestick chart trending up">
  <g stroke="#1c3a2c" stroke-width="1" opacity=".55">
    <line x1="0" y1="12" x2="392" y2="12"/>
    <line x1="0" y1="45.3" x2="392" y2="45.3"/>
    <line x1="0" y1="78.6" x2="392" y2="78.6"/>
  </g>
  <line x1="0" y1="112" x2="392" y2="112" stroke="#1c3a2c" stroke-width="1"/>
  <rect x="7.4" y="92.6" width="1.2" height="19.4" fill="#34e39b" opacity=".5"/>
  <rect x="4" y="99.2" width="8" height="3.3" fill="#34e39b"/>
  <rect x="23.4" y="89.4" width="1.2" height="16.6" fill="#34e39b" opacity=".5"/>
  <rect x="20" y="95.5" width="8" height="3.7" fill="#34e39b"/>
  <rect x="39.4" y="89.3" width="1.2" height="16.6" fill="#e0533d" opacity=".5"/>
  <rect x="36" y="95.5" width="8" height="3.2" fill="#e0533d"/>
  <rect x="55.4" y="84.4" width="1.2" height="18.8" fill="#34e39b" opacity=".5"/>
  <rect x="52" y="87.1" width="8" height="11.6" fill="#34e39b"/>
  <rect x="71.4" y="78.5" width="1.2" height="21.8" fill="#e0533d" opacity=".5"/>
  <rect x="68" y="87.1" width="8" height="5.6" fill="#e0533d"/>
  <rect x="87.4" y="82.7" width="1.2" height="26.5" fill="#e0533d" opacity=".5"/>
  <rect x="84" y="92.7" width="8" height="6.6" fill="#e0533d"/>
  <rect x="103.4" y="84.1" width="1.2" height="18.6" fill="#34e39b" opacity=".5"/>
  <rect x="100" y="91.1" width="8" height="8.2" fill="#34e39b"/>
  <rect x="119.4" y="84.8" width="1.2" height="16.2" fill="#e0533d" opacity=".5"/>
  <rect x="116" y="91.1" width="8" height="7.4" fill="#e0533d"/>
  <rect x="135.4" y="94.5" width="1.2" height="9.3" fill="#e0533d" opacity=".5"/>
  <rect x="132" y="98.5" width="8" height="3.1" fill="#e0533d"/>
  <rect x="151.4" y="92.4" width="1.2" height="18.0" fill="#34e39b" opacity=".5"/>
  <rect x="148" y="98.0" width="8" height="3.6" fill="#34e39b"/>
  <rect x="167.4" y="85.8" width="1.2" height="18.3" fill="#34e39b" opacity=".5"/>
  <rect x="164" y="93.0" width="8" height="5.0" fill="#34e39b"/>
  <rect x="183.4" y="78.9" width="1.2" height="18.4" fill="#34e39b" opacity=".5"/>
  <rect x="180" y="84.6" width="8" height="8.4" fill="#34e39b"/>
  <rect x="199.4" y="57.9" width="1.2" height="35.6" fill="#34e39b" opacity=".5"/>
  <rect x="196" y="68.0" width="8" height="16.6" fill="#34e39b"/>
  <rect x="215.4" y="53.9" width="1.2" height="18.0" fill="#34e39b" opacity=".5"/>
  <rect x="212" y="58.5" width="8" height="9.5" fill="#34e39b"/>
  <rect x="231.4" y="55.9" width="1.2" height="11.5" fill="#e0533d" opacity=".5"/>
  <rect x="228" y="58.5" width="8" height="1.5" fill="#e0533d"/>
  <rect x="247.4" y="48.2" width="1.2" height="16.2" fill="#34e39b" opacity=".5"/>
  <rect x="244" y="57.1" width="8" height="2.1" fill="#34e39b"/>
  <rect x="263.4" y="32.6" width="1.2" height="26.6" fill="#34e39b" opacity=".5"/>
  <rect x="260" y="41.5" width="8" height="15.6" fill="#34e39b"/>
  <rect x="279.4" y="32.1" width="1.2" height="17.9" fill="#e0533d" opacity=".5"/>
  <rect x="276" y="41.5" width="8" height="2.6" fill="#e0533d"/>
  <rect x="295.4" y="22.7" width="1.2" height="24.1" fill="#34e39b" opacity=".5"/>
  <rect x="292" y="28.0" width="8" height="16.1" fill="#34e39b"/>
  <rect x="311.4" y="12.0" width="1.2" height="20.2" fill="#34e39b" opacity=".5"/>
  <rect x="308" y="20.3" width="8" height="7.7" fill="#34e39b"/>
  <rect x="327.4" y="15.6" width="1.2" height="20.2" fill="#e0533d" opacity=".5"/>
  <rect x="324" y="20.3" width="8" height="5.6" fill="#e0533d"/>
  <rect x="343.4" y="12.2" width="1.2" height="17.8" fill="#34e39b" opacity=".5"/>
  <rect x="340" y="15.2" width="8" height="10.7" fill="#34e39b"/>
  <rect x="359.4" y="12.7" width="1.2" height="16.2" fill="#e0533d" opacity=".5"/>
  <rect x="356" y="15.2" width="8" height="5.2" fill="#e0533d"/>
  <rect x="375.4" y="13.9" width="1.2" height="15.6" fill="#e0533d" opacity=".5"/>
  <rect x="372" y="20.4" width="8" height="3.4" fill="#e0533d"/>
</svg>
